<svg width="256" height="256" viewBox="0 0 256 256" fill="none" xmlns="http://www.w3.org/2000/svg">
<g clip-path="url(#clip0_2087_25904)">
<path d="M126.014 235.972L144.675 254.939L146.377 215.585L126.014 235.972Z" fill="#FF3434"/>
<path fill-rule="evenodd" clip-rule="evenodd" d="M107.952 218.158V165.668L83.3141 142.459V104.608L103.31 83.541H114.737V121.391L127.693 131.638L139.62 121.391V83.541H151.046L171.042 104.608V142.459L146.404 165.668V218.158L126.934 236.285L126.928 236.879L107.952 218.158Z" fill="#FF3434"/>
<path fill-rule="evenodd" clip-rule="evenodd" d="M224.589 211.992C204.084 235.573 175.66 250.838 144.677 254.909L139.658 216.712C161.315 213.866 181.184 203.195 195.517 186.711C209.851 170.228 217.66 149.07 217.471 127.227C217.282 105.384 209.109 84.3645 194.493 68.1311C179.877 51.8978 159.827 41.5721 138.123 39.1007C116.419 36.6293 94.5613 42.183 76.6696 54.7147C58.7778 67.2464 46.0885 85.8904 40.9937 107.132C35.899 128.373 38.7508 150.745 49.0116 170.029C57.1363 185.298 69.4618 197.797 84.4006 206.133V244.744L83.2181 247.911C53.9434 236.978 29.6795 215.713 15.0006 188.126C0.321701 160.538 -3.75809 128.534 3.53035 98.1464C10.8188 67.7586 28.9719 41.0869 54.5675 23.1592C80.1631 5.23158 111.433 -2.71337 142.482 0.822149C173.531 4.35767 202.214 19.1294 223.124 42.3526C244.033 65.5758 255.725 95.646 255.995 126.894C256.265 158.143 245.095 188.411 224.589 211.992Z" fill="#FF3434"/>
</g>
<defs>
<clipPath id="clip0_2087_25904">
<rect width="256" height="256" fill="white"/>
</clipPath>
</defs>
</svg>
