<svg width="140" height="140" viewBox="0 0 140 140" fill="none" xmlns="http://www.w3.org/2000/svg">
<g clip-path="url(#clip0_2112_26337)">
<circle cx="70" cy="70" r="70" fill="#070707"/>
<path d="M70.535 87.632C79.9774 87.632 87.632 79.9774 87.632 70.535C87.632 61.0926 79.9774 53.438 70.535 53.438C61.0926 53.438 53.438 61.0926 53.438 70.535C53.438 79.9774 61.0926 87.632 70.535 87.632Z" stroke="white" stroke-width="5.45896" stroke-linecap="round" stroke-linejoin="round"/>
<path d="M95.2548 53.6869C96.1123 54.9145 96.8631 56.2135 97.4988 57.5693L106.724 62.6984C107.876 67.8577 107.888 73.2062 106.76 78.3707L97.4988 83.4998C96.8631 84.8557 96.1123 86.1546 95.2548 87.3823L95.4329 97.961C91.5232 101.524 86.8959 104.208 81.8622 105.833L72.7794 100.383C71.2853 100.49 69.7855 100.49 68.2914 100.383L59.2442 105.797C54.1946 104.202 49.552 101.528 45.6378 97.961L45.8159 87.4179C44.9656 86.1732 44.2153 84.8631 43.5719 83.4998L34.3467 78.3707C33.1948 73.2114 33.1826 67.8629 34.3111 62.6984L43.5719 57.5693C44.2077 56.2135 44.9584 54.9145 45.8159 53.6869L45.6378 43.1081C49.5475 39.5454 54.1749 36.8613 59.2086 35.2363L68.2914 40.686C69.7855 40.5791 71.2853 40.5791 72.7794 40.686L81.8265 35.2719C86.8762 36.8673 91.5188 39.541 95.4329 43.1081L95.2548 53.6869Z" stroke="white" stroke-width="5.45896" stroke-linecap="round" stroke-linejoin="round"/>
</g>
<defs>
<clipPath id="clip0_2112_26337">
<rect width="140" height="140" fill="white"/>
</clipPath>
</defs>
</svg>
