<svg width="140" height="140" viewBox="0 0 140 140" fill="none" xmlns="http://www.w3.org/2000/svg">
<circle cx="70" cy="70" r="70" fill="#070707"/>
<path d="M69.5165 102.73C87.6059 102.73 102.27 88.0658 102.27 69.9764C102.27 51.887 87.6059 37.2227 69.5165 37.2227C51.4271 37.2227 36.7627 51.887 36.7627 69.9764C36.7627 88.0658 51.4271 102.73 69.5165 102.73Z" stroke="white" stroke-width="5.45896" stroke-linecap="round" stroke-linejoin="round"/>
<path d="M69.5165 83.6239C77.0538 83.6239 83.1639 77.5138 83.1639 69.9765C83.1639 62.4393 77.0538 56.3291 69.5165 56.3291C61.9793 56.3291 55.8691 62.4393 55.8691 69.9765C55.8691 77.5138 61.9793 83.6239 69.5165 83.6239Z" stroke="white" stroke-width="5.45896" stroke-linecap="round" stroke-linejoin="round"/>
<path d="M59.8615 60.3215L46.3506 46.8105" stroke="white" stroke-width="5.45896" stroke-linecap="round" stroke-linejoin="round"/>
<path d="M79.1724 60.3215L92.6833 46.8105" stroke="white" stroke-width="5.45896" stroke-linecap="round" stroke-linejoin="round"/>
<path d="M79.1724 79.6323L92.6833 93.1433" stroke="white" stroke-width="5.45896" stroke-linecap="round" stroke-linejoin="round"/>
<path d="M59.8615 79.6323L46.3506 93.1433" stroke="white" stroke-width="5.45896" stroke-linecap="round" stroke-linejoin="round"/>
</svg>
