<svg width="32" height="32" viewBox="0 0 32 32" fill="none" xmlns="http://www.w3.org/2000/svg">
<g clip-path="url(#clip0_2087_25903)">
<path d="M15.7517 29.4966L18.0844 31.8674L18.2971 26.9482L15.7517 29.4966Z" fill="#FF3434"/>
<path fill-rule="evenodd" clip-rule="evenodd" d="M13.4941 27.2697V20.7084L10.4142 17.8071V13.0758L12.9138 10.4424H14.3421V15.1737L15.9616 16.4545L17.4525 15.1737V10.4424H18.8808L21.3804 13.0758V17.8071L18.3005 20.7084V27.2697L15.8667 29.5355L15.866 29.6097L13.4941 27.2697Z" fill="#FF3434"/>
<path fill-rule="evenodd" clip-rule="evenodd" d="M28.0737 26.4991C25.5105 29.4468 21.9576 31.3549 18.0846 31.8639L17.4572 27.0891C20.1644 26.7334 22.648 25.3995 24.4397 23.3391C26.2314 21.2786 27.2075 18.6339 27.1839 15.9035C27.1603 13.1731 26.1387 10.5456 24.3117 8.51645C22.4846 6.48726 19.9784 5.19654 17.2654 4.88762C14.5524 4.57869 11.8201 5.27291 9.58364 6.83938C7.34715 8.40586 5.76098 10.7364 5.12413 13.3916C4.48728 16.0468 4.84377 18.8432 6.12637 21.2538C7.14197 23.1625 8.68266 24.7248 10.55 25.7668V30.5932L10.4022 30.9891C6.74285 29.6224 3.70984 26.9643 1.87497 23.5159C0.0400909 20.0674 -0.469887 16.0669 0.441175 12.2684C1.35224 8.46989 3.62139 5.13589 6.82087 2.89492C10.0203 0.653952 13.9291 -0.339174 17.8102 0.102769C21.6914 0.544712 25.2768 2.39119 27.8905 5.29411C30.5042 8.19703 31.9658 11.9558 31.9995 15.8619C32.0332 19.768 30.6369 23.5515 28.0737 26.4991Z" fill="#FF3434"/>
</g>
<defs>
<clipPath id="clip0_2087_25903">
<rect width="32" height="32" fill="white"/>
</clipPath>
</defs>
</svg>
