<svg width="410" height="100" viewBox="0 0 410 100" fill="none" xmlns="http://www.w3.org/2000/svg">
<path fill-rule="evenodd" clip-rule="evenodd" d="M93.8392 27.4769H43.9102L41.6565 38.8812H87.0192L81.5979 64.7036H35.974L29.0187 98.3455H0L20.3057 1.65452H99.2605L93.8392 27.4769ZM35.1633 63.7187H80.7898L85.7976 39.8661H40.4493L43.0923 26.492H93.031L98.0388 2.63936H21.1137L1.22172 97.3606H28.2081L35.1633 63.7187ZM158.39 98.3455L156.164 85.6608H124.323L116.811 98.3455H83.4781L141.271 1.65452H174.326L173.476 3.34057L190.316 98.3455H158.39ZM172.719 2.63936L172.44 3.19087L189.133 97.3606H159.225L157 84.676H123.754L116.242 97.3606H85.2216L141.837 2.63936H172.719ZM135.578 64.9596H153.383L149.349 41.9342L135.578 64.9596ZM137.322 63.9748H152.202L148.831 44.7321L137.322 63.9748ZM284.396 89.6395C274.659 95.5682 262.974 99.0152 250.454 99.0152C225.137 99.0152 206.08 81.2291 206.08 57.5143C206.08 26.3541 233.762 0.984833 267.564 0.984833C293.021 0.984833 312.078 18.7709 312.078 42.3478C312.078 54.7567 307.627 66.3384 300.254 75.714L307.07 82.7457L291.908 97.3606L284.396 89.6395ZM301.562 75.6422C308.746 66.2301 313.072 54.6967 313.072 42.3478C313.072 18.1693 293.509 0 267.564 0C233.286 0 205.086 25.741 205.086 57.5143C205.086 81.8267 224.644 100 250.454 100C262.867 100 274.478 96.6608 284.232 90.8895L291.885 98.7562L308.471 82.7693L301.562 75.6422ZM260.609 65.0975L275.771 50.4828L275.772 50.4826L275.772 50.4828L281.336 56.2734C281.491 55.9549 281.64 55.6339 281.783 55.3103C283.432 51.5713 284.257 47.5006 284.257 43.313C284.257 32.9722 276.467 25.2511 266.034 25.2511C248.368 25.2511 233.901 39.4524 233.901 56.687C233.901 67.0278 241.691 74.7489 252.124 74.7489C257.032 74.7489 261.581 73.679 265.658 71.7599C265.972 71.6123 266.283 71.4596 266.591 71.3019L260.609 65.0975ZM264.934 71.0086L259.21 65.0721L275.799 49.0827L281.037 54.5344C282.519 51.0308 283.263 47.2293 283.263 43.313C283.263 33.5161 275.918 26.236 266.034 26.236C248.905 26.236 234.895 40.0075 234.895 56.687C234.895 66.4839 242.24 73.764 252.124 73.764C256.763 73.764 261.064 72.7789 264.934 71.0086ZM368.769 37.9409L368.771 37.9414C379.894 40.491 388.148 43.1098 393.615 47.0676C396.372 49.0631 398.437 51.4084 399.804 54.2609C401.169 57.1077 401.813 60.4049 401.813 64.2702C401.813 75.1618 396.629 84.1281 388.234 90.3425C379.857 96.543 368.299 100 355.471 100C337.992 100 321.997 93.5752 311.905 83.0091L311.221 82.2931L330.155 64.5688L330.838 65.2101C338.705 72.6044 348.886 75.8322 357.419 75.8322C362.693 75.8322 366.484 74.592 368.925 72.9365C371.379 71.2725 372.422 69.2355 372.422 67.5793C372.422 66.9751 372.296 66.6392 372.07 66.3725C371.811 66.0663 371.323 65.7355 370.357 65.3591C368.838 64.767 366.508 64.1923 362.939 63.3115C361.912 63.058 360.782 62.7792 359.54 62.4674C350.478 60.2049 342.164 58.1034 336.14 54.2944C333.102 52.3735 330.612 49.9998 328.888 46.9261C327.163 43.8523 326.239 40.1395 326.239 35.5919C326.239 15.4304 344.409 0 371.19 0C385.861 0 399.475 4.61499 409.291 13.7799L410 14.4423L392.559 33.5172L391.825 32.8918C384.108 26.3163 374.614 24.1678 368.686 24.1678C359.683 24.1678 355.769 29.1705 355.769 32.4207C355.769 33.1095 355.93 33.5656 356.234 33.9402C356.562 34.3442 357.134 34.7476 358.136 35.1674C360.118 35.9978 363.324 36.7181 368.358 37.8486L368.769 37.9409ZM359.783 61.5127C341.561 56.9628 327.233 53.2401 327.233 35.5919C327.233 16.1513 344.76 0.984833 371.19 0.984833C385.657 0.984833 399.011 5.53477 408.609 14.4968L408.609 14.4972L392.473 32.145C384.544 25.389 374.807 23.183 368.686 23.183C359.366 23.183 354.776 28.4223 354.776 32.4207C354.776 35.8083 358 36.5325 368.015 38.7814L368.547 38.9009C390.804 44.0024 400.819 49.2417 400.819 64.2702C400.819 85.3654 380.788 99.0152 355.471 99.0152C338.619 99.0152 323.228 92.9614 313.318 83.0397C313.085 82.806 312.854 82.5701 312.627 82.3321L330.154 65.9248C338.222 73.508 348.655 76.817 357.419 76.817C368.269 76.817 373.416 71.7156 373.416 67.5793C373.416 64.8807 371.324 64.3647 363.124 62.3419C362.107 62.0911 360.996 61.817 359.783 61.5127Z" fill="#393939"/>
</svg>
