<svg width="140" height="140" viewBox="0 0 140 140" fill="none" xmlns="http://www.w3.org/2000/svg">
<circle cx="70" cy="70" r="70" fill="#070707"/>
<path d="M69.5273 88.2827C77.0732 88.2827 83.1904 82.1655 83.1904 74.6196C83.1904 67.0737 77.0732 60.9565 69.5273 60.9565C61.9814 60.9565 55.8643 67.0737 55.8643 74.6196C55.8643 82.1655 61.9814 88.2827 69.5273 88.2827Z" stroke="white" stroke-width="5.46523" stroke-linecap="round" stroke-linejoin="round"/>
<path d="M92.7549 66.4219C95.9375 66.4166 99.0773 67.155 101.924 68.5783C104.771 70.0017 107.245 72.0705 109.151 74.6198" stroke="white" stroke-width="5.46523" stroke-linecap="round" stroke-linejoin="round"/>
<path d="M29.9043 74.6198C31.8096 72.0705 34.2843 70.0017 37.1309 68.5783C39.9775 67.155 43.1174 66.4166 46.3 66.4219" stroke="white" stroke-width="5.46523" stroke-linecap="round" stroke-linejoin="round"/>
<path d="M49.8525 100.58C51.652 96.8947 54.4504 93.7889 57.9289 91.6164C61.4074 89.4439 65.4262 88.292 69.5274 88.292C73.6286 88.292 77.6473 89.4439 81.1258 91.6164C84.6043 93.7889 87.4027 96.8947 89.2022 100.58" stroke="white" stroke-width="5.46523" stroke-linecap="round" stroke-linejoin="round"/>
<path d="M46.3009 66.422C44.2263 66.4241 42.194 65.8357 40.4413 64.7257C38.6887 63.6156 37.2882 62.0297 36.4034 60.1533C35.5185 58.2768 35.186 56.1873 35.4446 54.1289C35.7033 52.0705 36.5423 50.1282 37.8638 48.5289C39.1853 46.9297 40.9346 45.7395 42.9074 45.0976C44.8802 44.4556 46.9949 44.3883 49.0045 44.9035C51.0141 45.4187 52.8356 46.4952 54.2561 48.0072C55.6766 49.5192 56.6375 51.4042 57.0265 53.442" stroke="white" stroke-width="5.46523" stroke-linecap="round" stroke-linejoin="round"/>
<path d="M82.0293 53.442C82.4183 51.4042 83.3792 49.5192 84.7997 48.0072C86.2202 46.4952 88.0417 45.4187 90.0513 44.9035C92.0608 44.3883 94.1756 44.4556 96.1483 45.0976C98.1211 45.7395 99.8704 46.9297 101.192 48.5289C102.513 50.1282 103.352 52.0705 103.611 54.1289C103.87 56.1873 103.537 58.2768 102.652 60.1533C101.768 62.0297 100.367 63.6156 98.6144 64.7257C96.8618 65.8357 94.8294 66.4241 92.7548 66.422" stroke="white" stroke-width="5.46523" stroke-linecap="round" stroke-linejoin="round"/>
</svg>
